WixMadeforText_XBdIt.ufo
<glyph name="exclam" format="2">
	<unicode hex="0021"/>
	<advance width="285"/>
	<outline>
		<contour>
			<point x="178" y="237" type="line"/>
			<point x="195" y="283"/>
			<point x="249" y="437"/>
			<point x="287" y="548" type="curve" smooth="yes"/>
			<point x="311" y="619"/>
			<point x="316" y="639"/>
			<point x="316" y="656" type="curve" smooth="yes"/>
			<point x="316" y="704"/>
			<point x="286" y="731"/>
			<point x="235" y="731" type="curve" smooth="yes"/>
			<point x="203" y="731"/>
			<point x="176" y="720"/>
			<point x="158" y="700" type="curve" smooth="yes"/>
			<point x="138" y="676"/>
			<point x="130" y="647"/>
			<point x="124" y="578" type="curve" smooth="yes"/>
			<point x="113" y="460"/>
			<point x="98" y="272"/>
			<point x="97" y="237" type="curve"/>
		</contour>
		<contour>
			<point x="7" y="67" type="curve" smooth="yes"/>
			<point x="7" y="21"/>
			<point x="43" y="-13"/>
			<point x="90" y="-13" type="curve" smooth="yes"/>
			<point x="157" y="-13"/>
			<point x="205" y="33"/>
			<point x="205" y="99" type="curve" smooth="yes"/>
			<point x="205" y="146"/>
			<point x="170" y="183"/>
			<point x="124" y="183" type="curve" smooth="yes"/>
			<point x="57" y="183"/>
			<point x="7" y="134"/>
		</contour>
	</outline>
</glyph>
<glyph name="parenleft" format="2">
	<unicode hex="0028"/>
	<advance width="372"/>
	<outline>
		<contour>
			<point x="260" y="-129" type="line"/>
			<point x="223" y="-40"/>
			<point x="205" y="55"/>
			<point x="205" y="149" type="curve" smooth="yes"/>
			<point x="205" y="365"/>
			<point x="296" y="580"/>
			<point x="444" y="731" type="curve"/>
			<point x="276" y="731" type="line"/>
			<point x="127" y="576"/>
			<point x="40" y="370"/>
			<point x="40" y="158" type="curve" smooth="yes"/>
			<point x="40" y="62"/>
			<point x="57" y="-35"/>
			<point x="95" y="-129" type="curve"/>
		</contour>
	</outline>
</glyph>
<glyph name="comma" format="2">
	<unicode hex="002C"/>
	<advance width="283"/>
	<outline>
		<contour>
			<point x="44" y="-157" type="line"/>
			<point x="144" y="-76"/>
			<point x="205" y="20"/>
			<point x="205" y="96" type="curve" smooth="yes"/>
			<point x="205" y="147"/>
			<point x="168" y="183"/>
			<point x="117" y="183" type="curve" smooth="yes"/>
			<point x="56" y="183"/>
			<point x="7" y="134"/>
			<point x="7" y="73" type="curve" smooth="yes"/>
			<point x="7" y="23"/>
			<point x="43" y="-13"/>
			<point x="93" y="-13" type="curve"/>
			<point x="84" y="52" type="line"/>
			<point x="69" y="-17"/>
			<point x="19" y="-86"/>
			<point x="-54" y="-157" type="curve"/>
		</contour>
	</outline>
	<guideline x="145"/>
	<guideline y="-10"/>
</glyph>
<glyph name="period" format="2">
	<unicode hex="002E"/>
	<advance width="283"/>
	<outline>
		<contour>
			<point x="7" y="73" type="curve" smooth="yes"/>
			<point x="7" y="21"/>
			<point x="43" y="-13"/>
			<point x="95" y="-13" type="curve" smooth="yes"/>
			<point x="157" y="-13"/>
			<point x="205" y="33"/>
			<point x="205" y="94" type="curve" smooth="yes"/>
			<point x="205" y="147"/>
			<point x="169" y="183"/>
			<point x="117" y="183" type="curve" smooth="yes"/>
			<point x="55" y="183"/>
			<point x="7" y="132"/>
		</contour>
	</outline>
	<guideline y="-13"/>
</glyph>
<glyph name="slash" format="2">
	<unicode hex="002F"/>
	<advance width="527"/>
	<outline>
		<contour>
			<point x="-2" y="0" type="line"/>
			<point x="155" y="0" type="line"/>
			<point x="579" y="732" type="line"/>
			<point x="421" y="732" type="line"/>
		</contour>
	</outline>
</glyph>
<glyph name="one" format="2">
	<unicode hex="0031"/>
	<advance width="522"/>
	<outline>
		<contour>
			<point x="192" y="0" type="line"/>
			<point x="358" y="0" type="line"/>
			<point x="510" y="715" type="line"/>
			<point x="375" y="715" type="line"/>
			<point x="155" y="596" type="line"/>
			<point x="118" y="423" type="line"/>
			<point x="304" y="528" type="line"/>
		</contour>
	</outline>
	<guideline x="36" y="0" angle="102"/>
	<guideline x="200" y="0" angle="102"/>
</glyph>
<glyph name="two" format="2">
	<unicode hex="0032"/>
	<advance width="565"/>
	<outline>
		<contour>
			<point x="-12" y="0" type="line"/>
			<point x="476" y="0" type="line"/>
			<point x="504" y="134" type="line"/>
			<point x="216" y="134" type="line"/>
			<point x="225" y="122" type="line"/>
			<point x="363" y="225" type="line" smooth="yes"/>
			<point x="493" y="323"/>
			<point x="586" y="401"/>
			<point x="586" y="536" type="curve" smooth="yes"/>
			<point x="586" y="651"/>
			<point x="494" y="731"/>
			<point x="359" y="731" type="curve" smooth="yes"/>
			<point x="256" y="731"/>
			<point x="163" y="686"/>
			<point x="88" y="603" type="curve"/>
			<point x="179" y="496" type="line"/>
			<point x="228" y="556"/>
			<point x="284" y="589"/>
			<point x="337" y="589" type="curve" smooth="yes"/>
			<point x="395" y="589"/>
			<point x="427" y="560"/>
			<point x="427" y="517" type="curve" smooth="yes"/>
			<point x="427" y="455"/>
			<point x="375" y="413"/>
			<point x="321" y="371" type="curve" smooth="yes"/>
			<point x="16" y="136" type="line"/>
		</contour>
	</outline>
	<guideline y="589"/>
	<guideline y="731"/>
	<guideline x="-30" y="0" angle="102"/>
	<guideline x="471" y="0" angle="102"/>
</glyph>
<glyph name="five" format="2">
	<unicode hex="0035"/>
	<advance width="586"/>
	<outline>
		<contour>
			<point x="-7" y="119" type="line"/>
			<point x="47" y="34"/>
			<point x="141" y="-16"/>
			<point x="248" y="-16" type="curve" smooth="yes"/>
			<point x="430" y="-16"/>
			<point x="559" y="105"/>
			<point x="559" y="276" type="curve" smooth="yes"/>
			<point x="559" y="400"/>
			<point x="475" y="494"/>
			<point x="366" y="494" type="curve" smooth="yes"/>
			<point x="285" y="494"/>
			<point x="231" y="461"/>
			<point x="183" y="381" type="curve"/>
			<point x="220" y="381" type="line"/>
			<point x="320" y="676" type="line"/>
			<point x="218" y="581" type="line"/>
			<point x="585" y="581" type="line"/>
			<point x="613" y="715" type="line"/>
			<point x="193" y="715" type="line"/>
			<point x="57" y="301" type="line"/>
			<point x="193" y="301" type="line"/>
			<point x="222" y="341"/>
			<point x="255" y="360"/>
			<point x="297" y="360" type="curve" smooth="yes"/>
			<point x="358" y="360"/>
			<point x="395" y="323"/>
			<point x="395" y="263" type="curve" smooth="yes"/>
			<point x="395" y="180"/>
			<point x="338" y="121"/>
			<point x="259" y="121" type="curve" smooth="yes"/>
			<point x="203" y="121"/>
			<point x="146" y="161"/>
			<point x="118" y="220" type="curve"/>
		</contour>
	</outline>
	<guideline y="121"/>
	<guideline y="494"/>
	<guideline x="-28" y="0" angle="102"/>
	<guideline x="511" y="0" angle="102"/>
</glyph>
<glyph name="six" format="2">
	<unicode hex="0036"/>
	<advance width="637"/>
	<outline>
		<contour>
			<point x="396" y="484" type="curve" smooth="yes"/>
			<point x="346" y="484"/>
			<point x="307" y="468"/>
			<point x="276" y="434" type="curve"/>
			<point x="284" y="429" type="line"/>
			<point x="346" y="509"/>
			<point x="438" y="584"/>
			<point x="633" y="715" type="curve"/>
			<point x="392" y="715" type="line"/>
			<point x="150" y="542"/>
			<point x="42" y="387"/>
			<point x="42" y="213" type="curve" smooth="yes"/>
			<point x="42" y="81"/>
			<point x="146" y="-16"/>
			<point x="286" y="-16" type="curve" smooth="yes"/>
			<point x="461" y="-16"/>
			<point x="596" y="116"/>
			<point x="596" y="287" type="curve" smooth="yes"/>
			<point x="596" y="400"/>
			<point x="511" y="484"/>
		</contour>
		<contour>
			<point x="333" y="355" type="curve" smooth="yes"/>
			<point x="390" y="355"/>
			<point x="432" y="314"/>
			<point x="432" y="258" type="curve" smooth="yes"/>
			<point x="432" y="180"/>
			<point x="376" y="120"/>
			<point x="304" y="120" type="curve" smooth="yes"/>
			<point x="246" y="120"/>
			<point x="204" y="161"/>
			<point x="204" y="217" type="curve" smooth="yes"/>
			<point x="204" y="295"/>
			<point x="260" y="355"/>
		</contour>
	</outline>
	<guideline y="308"/>
	<guideline y="484"/>
	<guideline x="-6" y="0" angle="102"/>
	<guideline x="549" y="0" angle="102"/>
</glyph>
<glyph name="equal" format="2">
	<unicode hex="003D"/>
	<advance width="632"/>
	<outline>
		<contour>
			<point x="86" y="176" type="line"/>
			<point x="511" y="176" type="line"/>
			<point x="539" y="310" type="line"/>
			<point x="114" y="310" type="line"/>
		</contour>
		<contour>
			<point x="135" y="405" type="line"/>
			<point x="560" y="405" type="line"/>
			<point x="588" y="539" type="line"/>
			<point x="163" y="539" type="line"/>
		</contour>
	</outline>
</glyph>
<glyph name="B" format="2">
	<unicode hex="0042"/>
	<advance width="669"/>
	<outline>
		<contour>
			<point x="25" y="0" type="line"/>
			<point x="313" y="0" type="line" smooth="yes"/>
			<point x="490" y="0"/>
			<point x="616" y="94"/>
			<point x="616" y="227" type="curve" smooth="yes"/>
			<point x="616" y="331"/>
			<point x="521" y="402"/>
			<point x="383" y="402" type="curve" smooth="yes"/>
			<point x="285" y="402" type="line"/>
			<point x="274" y="349" type="line"/>
			<point x="393" y="349" type="line" smooth="yes"/>
			<point x="540" y="349"/>
			<point x="645" y="432"/>
			<point x="645" y="548" type="curve" smooth="yes"/>
			<point x="645" y="651"/>
			<point x="567" y="715"/>
			<point x="442" y="715" type="curve" smooth="yes"/>
			<point x="177" y="715" type="line"/>
		</contour>
		<contour>
			<point x="220" y="139" type="line"/>
			<point x="313" y="576" type="line"/>
			<point x="408" y="576" type="line" smooth="yes"/>
			<point x="452" y="576"/>
			<point x="477" y="554"/>
			<point x="477" y="515" type="curve" smooth="yes"/>
			<point x="477" y="466"/>
			<point x="438" y="433"/>
			<point x="380" y="433" type="curve" smooth="yes"/>
			<point x="273" y="433" type="line"/>
			<point x="244" y="298" type="line"/>
			<point x="369" y="298" type="line" smooth="yes"/>
			<point x="423" y="298"/>
			<point x="450" y="274"/>
			<point x="450" y="228" type="curve" smooth="yes"/>
			<point x="450" y="176"/>
			<point x="402" y="139"/>
			<point x="335" y="139" type="curve" smooth="yes"/>
		</contour>
	</outline>
	<guideline x="25" y="0" angle="102"/>
	<guideline x="190" y="0" angle="102"/>
	<guideline x="588" y="0" angle="102"/>
</glyph>
<glyph name="R" format="2">
	<unicode hex="0052"/>
	<advance width="703"/>
	<outline>
		<contour>
			<point x="432" y="0" type="line"/>
			<point x="622" y="0" type="line"/>
			<point x="455" y="333" type="line"/>
			<point x="279" y="333" type="line"/>
		</contour>
		<contour>
			<point x="25" y="0" type="line"/>
			<point x="191" y="0" type="line"/>
			<point x="312" y="574" type="line"/>
			<point x="404" y="574" type="line" smooth="yes"/>
			<point x="458" y="574"/>
			<point x="489" y="547"/>
			<point x="489" y="500" type="curve" smooth="yes"/>
			<point x="489" y="439"/>
			<point x="441" y="398"/>
			<point x="368" y="398" type="curve" smooth="yes"/>
			<point x="265" y="398" type="line"/>
			<point x="235" y="257" type="line"/>
			<point x="350" y="257" type="line" smooth="yes"/>
			<point x="528" y="257"/>
			<point x="656" y="363"/>
			<point x="656" y="510" type="curve" smooth="yes"/>
			<point x="656" y="642"/>
			<point x="574" y="715"/>
			<point x="425" y="715" type="curve" smooth="yes"/>
			<point x="176" y="715" type="line"/>
		</contour>
	</outline>
	<anchor name="top.UC" x="393" y="750"/>
	<guideline x="234" y="0" angle="102"/>
	<guideline x="616" y="0" angle="102"/>
</glyph>
<glyph name="V" format="2">
	<unicode hex="0056"/>
	<advance width="750"/>
	<outline>
		<contour>
			<point x="239" y="0" type="line"/>
			<point x="403" y="0" type="line"/>
			<point x="816" y="715" type="line"/>
			<point x="638" y="715" type="line"/>
			<point x="330" y="143" type="line"/>
			<point x="370" y="143" type="line"/>
			<point x="305" y="715" type="line"/>
			<point x="130" y="715" type="line"/>
		</contour>
	</outline>
	<guideline y="343"/>
	<guideline y="605"/>
	<guideline x="-23" y="0" angle="102"/>
	<guideline x="663" y="0" angle="102"/>
</glyph>
<glyph name="X" format="2">
	<unicode hex="0058"/>
	<advance width="744"/>
	<outline>
		<contour>
			<point x="-26" y="0" type="line"/>
			<point x="181" y="0" type="line"/>
			<point x="401" y="275" type="line"/>
			<point x="364" y="275" type="line"/>
			<point x="477" y="0" type="line"/>
			<point x="661" y="0" type="line"/>
			<point x="485" y="387" type="line"/>
			<point x="482" y="346" type="line"/>
			<point x="791" y="715" type="line"/>
			<point x="593" y="715" type="line"/>
			<point x="399" y="460" type="line"/>
			<point x="430" y="460" type="line"/>
			<point x="334" y="715" type="line"/>
			<point x="149" y="715" type="line"/>
			<point x="312" y="346" type="line"/>
			<point x="310" y="387" type="line"/>
		</contour>
	</outline>
	<guideline x="-27" y="0" angle="102"/>
	<guideline x="661" y="0" angle="102"/>
</glyph>
<glyph name="backslash" format="2">
	<unicode hex="005C"/>
	<advance width="528"/>
	<outline>
		<contour>
			<point x="424" y="0" type="line"/>
			<point x="310" y="732" type="line"/>
			<point x="152" y="732" type="line"/>
			<point x="266" y="0" type="line"/>
		</contour>
	</outline>
</glyph>
<glyph name="underscore" format="2">
	<unicode hex="005F"/>
	<advance width="451"/>
	<outline>
		<contour>
			<point x="-91" y="-163" type="line"/>
			<point x="363" y="-163" type="line"/>
			<point x="392" y="-31" type="line"/>
			<point x="-63" y="-31" type="line"/>
		</contour>
	</outline>
</glyph>
<glyph name="a" format="2">
	<unicode hex="0061"/>
	<advance width="565"/>
	<outline>
		<contour>
			<point x="318" y="0" type="line"/>
			<point x="459" y="0" type="line"/>
			<point x="517" y="272" type="line" smooth="yes"/>
			<point x="522" y="295"/>
			<point x="525" y="318"/>
			<point x="525" y="339" type="curve" smooth="yes"/>
			<point x="525" y="454"/>
			<point x="449" y="526"/>
			<point x="309" y="526" type="curve" smooth="yes"/>
			<point x="224" y="526"/>
			<point x="135" y="500"/>
			<point x="79" y="446" type="curve"/>
			<point x="152" y="346" type="line"/>
			<point x="190" y="386"/>
			<point x="246" y="403"/>
			<point x="290" y="403" type="curve" smooth="yes"/>
			<point x="363" y="403"/>
			<point x="385" y="358"/>
			<point x="369" y="282" type="curve" smooth="yes"/>
			<point x="333" y="113" type="line"/>
			<point x="341" y="105" type="line"/>
		</contour>
		<contour>
			<point x="286" y="319" type="line" smooth="yes"/>
			<point x="109" y="319"/>
			<point x="10" y="251"/>
			<point x="10" y="140" type="curve" smooth="yes"/>
			<point x="10" y="45"/>
			<point x="81" y="-16"/>
			<point x="175" y="-16" type="curve" smooth="yes"/>
			<point x="289" y="-16"/>
			<point x="372" y="73"/>
			<point x="397" y="213" type="curve"/>
			<point x="365" y="232" type="line"/>
			<point x="346" y="153"/>
			<point x="294" y="101"/>
			<point x="236" y="101" type="curve" smooth="yes"/>
			<point x="194" y="101"/>
			<point x="171" y="123"/>
			<point x="171" y="155" type="curve" smooth="yes"/>
			<point x="171" y="196"/>
			<point x="211" y="222"/>
			<point x="281" y="222" type="curve" smooth="yes"/>
			<point x="369" y="222" type="line"/>
			<point x="382" y="319" type="line"/>
		</contour>
	</outline>
	<anchor name="top.LC" x="316" y="544"/>
	<anchor name="ogonek.LC" x="340" y="-30"/>
	<guideline x="-11"/>
	<guideline y="101"/>
</glyph>
<glyph name="b" format="2">
	<unicode hex="0062"/>
	<advance width="642"/>
	<outline>
		<contour>
			<point x="9" y="0" type="line"/>
			<point x="172" y="0" type="line"/>
			<point x="219" y="222" type="line" smooth="yes"/>
			<point x="243" y="335"/>
			<point x="287" y="390"/>
			<point x="352" y="390" type="curve" smooth="yes"/>
			<point x="408" y="390"/>
			<point x="441" y="350"/>
			<point x="441" y="283" type="curve" smooth="yes"/>
			<point x="441" y="193"/>
			<point x="383" y="120"/>
			<point x="311" y="120" type="curve" smooth="yes"/>
			<point x="257" y="120"/>
			<point x="208" y="166"/>
			<point x="208" y="217" type="curve"/>
			<point x="166" y="162" type="line"/>
			<point x="166" y="54"/>
			<point x="236" y="-16"/>
			<point x="342" y="-16" type="curve" smooth="yes"/>
			<point x="487" y="-16"/>
			<point x="609" y="126"/>
			<point x="609" y="305" type="curve" smooth="yes"/>
			<point x="609" y="438"/>
			<point x="539" y="526"/>
			<point x="427" y="526" type="curve" smooth="yes"/>
			<point x="335" y="526"/>
			<point x="255" y="457"/>
			<point x="223" y="350" type="curve"/>
			<point x="245" y="350" type="line"/>
			<point x="322" y="720" type="line"/>
			<point x="160" y="720" type="line"/>
		</contour>
	</outline>
	<guideline y="390"/>
</glyph>
<glyph name="g" format="2">
	<unicode hex="0067"/>
	<advance width="630"/>
	<outline>
		<contour>
			<point x="-23" y="-122" type="line"/>
			<point x="40" y="-182"/>
			<point x="114" y="-210"/>
			<point x="212" y="-210" type="curve" smooth="yes"/>
			<point x="386" y="-210"/>
			<point x="491" y="-122"/>
			<point x="528" y="52" type="curve" smooth="yes"/>
			<point x="624" y="510" type="line"/>
			<point x="463" y="510" type="line"/>
			<point x="436" y="383" type="line"/>
			<point x="461" y="374" type="line"/>
			<point x="459" y="468"/>
			<point x="403" y="526"/>
			<point x="304" y="526" type="curve" smooth="yes"/>
			<point x="143" y="526"/>
			<point x="22" y="387"/>
			<point x="22" y="208" type="curve" smooth="yes"/>
			<point x="22" y="82"/>
			<point x="98" y="0"/>
			<point x="209" y="0" type="curve" smooth="yes"/>
			<point x="308" y="0"/>
			<point x="374" y="57"/>
			<point x="431" y="186" type="curve"/>
			<point x="405" y="239" type="line"/>
			<point x="378" y="166"/>
			<point x="334" y="135"/>
			<point x="282" y="135" type="curve" smooth="yes"/>
			<point x="225" y="135"/>
			<point x="193" y="170"/>
			<point x="193" y="232" type="curve" smooth="yes"/>
			<point x="193" y="314"/>
			<point x="248" y="391"/>
			<point x="325" y="391" type="curve" smooth="yes"/>
			<point x="381" y="391"/>
			<point x="408" y="357"/>
			<point x="408" y="286" type="curve" smooth="yes"/>
			<point x="408" y="275"/>
			<point x="405" y="241"/>
			<point x="401" y="222" type="curve" smooth="yes"/>
			<point x="365" y="52" type="line" smooth="yes"/>
			<point x="347" y="-30"/>
			<point x="291" y="-76"/>
			<point x="212" y="-76" type="curve" smooth="yes"/>
			<point x="154" y="-76"/>
			<point x="110" y="-57"/>
			<point x="64" y="-12" type="curve"/>
		</contour>
	</outline>
	<anchor name="top.LC" x="326" y="544"/>
	<guideline y="68"/>
	<guideline y="225"/>
</glyph>
<glyph name="k" format="2">
	<unicode hex="006B"/>
	<advance width="599"/>
	<outline>
		<contour>
			<point x="9" y="0" type="line"/>
			<point x="172" y="0" type="line"/>
			<point x="325" y="720" type="line"/>
			<point x="162" y="720" type="line"/>
		</contour>
		<contour>
			<point x="360" y="0" type="line"/>
			<point x="549" y="0" type="line"/>
			<point x="375" y="275" type="line"/>
			<point x="372" y="251" type="line"/>
			<point x="630" y="510" type="line"/>
			<point x="444" y="510" type="line"/>
			<point x="206" y="265" type="line"/>
			<point x="200" y="265" type="line"/>
		</contour>
	</outline>
	<anchor name="bottom.LC" x="247" y="-50"/>
</glyph>
<glyph name="m" format="2">
	<unicode hex="006D"/>
	<advance width="870"/>
	<outline>
		<contour>
			<point x="9" y="0" type="line"/>
			<point x="172" y="0" type="line"/>
			<point x="228" y="266" type="line" smooth="yes"/>
			<point x="244" y="344"/>
			<point x="282" y="391"/>
			<point x="329" y="391" type="curve" smooth="yes"/>
			<point x="355" y="391"/>
			<point x="371" y="370"/>
			<point x="371" y="336" type="curve" smooth="yes"/>
			<point x="371" y="328"/>
			<point x="370" y="317"/>
			<point x="367" y="301" type="curve" smooth="yes"/>
			<point x="303" y="0" type="line"/>
			<point x="466" y="0" type="line"/>
			<point x="522" y="266" type="line" smooth="yes"/>
			<point x="538" y="344"/>
			<point x="576" y="391"/>
			<point x="623" y="391" type="curve" smooth="yes"/>
			<point x="649" y="391"/>
			<point x="665" y="370"/>
			<point x="665" y="336" type="curve" smooth="yes"/>
			<point x="665" y="328"/>
			<point x="664" y="317"/>
			<point x="661" y="301" type="curve" smooth="yes"/>
			<point x="597" y="0" type="line"/>
			<point x="760" y="0" type="line"/>
			<point x="823" y="295" type="line" smooth="yes"/>
			<point x="828" y="320"/>
			<point x="831" y="349"/>
			<point x="831" y="373" type="curve" smooth="yes"/>
			<point x="831" y="470"/>
			<point x="786" y="526"/>
			<point x="702" y="526" type="curve" smooth="yes"/>
			<point x="624" y="526"/>
			<point x="554" y="479"/>
			<point x="514" y="392" type="curve"/>
			<point x="525" y="389" type="line"/>
			<point x="527" y="479"/>
			<point x="489" y="526"/>
			<point x="412" y="526" type="curve" smooth="yes"/>
			<point x="351" y="526"/>
			<point x="280" y="489"/>
			<point x="246" y="415" type="curve"/>
			<point x="258" y="412" type="line"/>
			<point x="279" y="510" type="line"/>
			<point x="117" y="510" type="line"/>
		</contour>
	</outline>
</glyph>
<glyph name="q" format="2">
	<unicode hex="0071"/>
	<advance width="642"/>
	<outline>
		<contour>
			<point x="326" y="-194" type="line"/>
			<point x="484" y="-194" type="line"/>
			<point x="633" y="510" type="line"/>
			<point x="472" y="510" type="line"/>
			<point x="445" y="383" type="line"/>
			<point x="472" y="374" type="line"/>
			<point x="472" y="467"/>
			<point x="413" y="526"/>
			<point x="315" y="526" type="curve" smooth="yes"/>
			<point x="158" y="526"/>
			<point x="33" y="381"/>
			<point x="33" y="202" type="curve" smooth="yes"/>
			<point x="33" y="70"/>
			<point x="102" y="-16"/>
			<point x="217" y="-16" type="curve" smooth="yes"/>
			<point x="319" y="-16"/>
			<point x="391" y="47"/>
			<point x="431" y="170" type="curve"/>
			<point x="413" y="222" type="line"/>
			<point x="387" y="158"/>
			<point x="338" y="120"/>
			<point x="291" y="120" type="curve" smooth="yes"/>
			<point x="234" y="120"/>
			<point x="202" y="160"/>
			<point x="202" y="222" type="curve" smooth="yes"/>
			<point x="202" y="309"/>
			<point x="257" y="391"/>
			<point x="335" y="391" type="curve" smooth="yes"/>
			<point x="388" y="391"/>
			<point x="418" y="354"/>
			<point x="418" y="286" type="curve" smooth="yes"/>
			<point x="418" y="264"/>
			<point x="410" y="215"/>
			<point x="400" y="164" type="curve" smooth="yes"/>
		</contour>
	</outline>
	<guideline y="120"/>
</glyph>
<glyph name="v" format="2">
	<unicode hex="0076"/>
	<advance width="569"/>
	<outline>
		<contour>
			<point x="144" y="0" type="line"/>
			<point x="306" y="0" type="line"/>
			<point x="609" y="510" type="line"/>
			<point x="444" y="510" type="line"/>
			<point x="238" y="122" type="line"/>
			<point x="265" y="122" type="line"/>
			<point x="215" y="510" type="line"/>
			<point x="50" y="510" type="line"/>
		</contour>
	</outline>
</glyph>
<glyph name="w" format="2">
	<unicode hex="0077"/>
	<advance width="788"/>
	<outline>
		<contour>
			<point x="92" y="0" type="line"/>
			<point x="247" y="0" type="line"/>
			<point x="432" y="358" type="line"/>
			<point x="385" y="358" type="line"/>
			<point x="424" y="0" type="line"/>
			<point x="579" y="0" type="line"/>
			<point x="828" y="510" type="line"/>
			<point x="670" y="510" type="line"/>
			<point x="501" y="114" type="line"/>
			<point x="539" y="114" type="line"/>
			<point x="506" y="510" type="line"/>
			<point x="382" y="510" type="line"/>
			<point x="186" y="114" type="line"/>
			<point x="223" y="114" type="line"/>
			<point x="216" y="510" type="line"/>
			<point x="60" y="510" type="line"/>
		</contour>
	</outline>
	<anchor name="top.LC" x="443" y="544"/>
</glyph>
<glyph name="z" format="2">
	<unicode hex="007A"/>
	<advance width="506"/>
	<outline>
		<contour>
			<point x="-5" y="0" type="line"/>
			<point x="419" y="0" type="line"/>
			<point x="447" y="132" type="line"/>
			<point x="220" y="132" type="line"/>
			<point x="489" y="379" type="line"/>
			<point x="517" y="510" type="line"/>
			<point x="100" y="510" type="line"/>
			<point x="73" y="379" type="line"/>
			<point x="292" y="379" type="line"/>
			<point x="24" y="135" type="line"/>
		</contour>
	</outline>
	<anchor name="top.LC" x="312" y="544"/>
	<guideline x="-8" y="0" angle="102"/>
	<guideline x="419" y="0" angle="102"/>
</glyph>
<glyph name="braceright" format="2">
	<unicode hex="007D"/>
	<advance width="394"/>
	<outline>
		<contour>
			<point x="-42" y="-129" type="line"/>
			<point x="60" y="-129" type="line" smooth="yes"/>
			<point x="159" y="-129"/>
			<point x="218" y="-79"/>
			<point x="240" y="25" type="curve" smooth="yes"/>
			<point x="274" y="187" type="line" smooth="yes"/>
			<point x="282" y="226"/>
			<point x="297" y="239"/>
			<point x="331" y="239" type="curve" smooth="yes"/>
			<point x="352" y="239" type="line"/>
			<point x="379" y="366" type="line"/>
			<point x="358" y="366" type="line" smooth="yes"/>
			<point x="332" y="366"/>
			<point x="320" y="374"/>
			<point x="320" y="395" type="curve" smooth="yes"/>
			<point x="320" y="401"/>
			<point x="321" y="409"/>
			<point x="323" y="418" type="curve" smooth="yes"/>
			<point x="357" y="577" type="line" smooth="yes"/>
			<point x="361" y="596"/>
			<point x="363" y="613"/>
			<point x="363" y="629" type="curve" smooth="yes"/>
			<point x="363" y="697"/>
			<point x="324" y="731"/>
			<point x="243" y="731" type="curve" smooth="yes"/>
			<point x="141" y="731" type="line"/>
			<point x="114" y="604" type="line"/>
			<point x="158" y="604" type="line" smooth="yes"/>
			<point x="185" y="604"/>
			<point x="197" y="596"/>
			<point x="197" y="574" type="curve" smooth="yes"/>
			<point x="197" y="568"/>
			<point x="196" y="561"/>
			<point x="194" y="552" type="curve" smooth="yes"/>
			<point x="169" y="440" type="line" smooth="yes"/>
			<point x="165" y="421"/>
			<point x="163" y="404"/>
			<point x="163" y="389" type="curve" smooth="yes"/>
			<point x="163" y="321"/>
			<point x="202" y="288"/>
			<point x="284" y="288" type="curve"/>
			<point x="290" y="317" type="line"/>
			<point x="190" y="317"/>
			<point x="133" y="267"/>
			<point x="111" y="163" type="curve" smooth="yes"/>
			<point x="87" y="50" type="line" smooth="yes"/>
			<point x="79" y="11"/>
			<point x="64" y="-2"/>
			<point x="29" y="-2" type="curve" smooth="yes"/>
			<point x="-15" y="-2" type="line"/>
		</contour>
	</outline>
</glyph>
<glyph name="section" format="2">
	<unicode hex="00A7"/>
	<advance width="512"/>
	<outline>
		<contour>
			<point x="-32" y="-30" type="line"/>
			<point x="6" y="-91"/>
			<point x="88" y="-128"/>
			<point x="186" y="-128" type="curve" smooth="yes"/>
			<point x="332" y="-128"/>
			<point x="439" y="-41"/>
			<point x="439" y="77" type="curve" smooth="yes"/>
			<point x="439" y="123"/>
			<point x="424" y="157"/>
			<point x="395" y="182" type="curve"/>
			<point x="472" y="222"/>
			<point x="515" y="285"/>
			<point x="515" y="349" type="curve" smooth="yes"/>
			<point x="515" y="425"/>
			<point x="455" y="473"/>
			<point x="332" y="495" type="curve" smooth="yes"/>
			<point x="269" y="506"/>
			<point x="245" y="523"/>
			<point x="245" y="556" type="curve" smooth="yes"/>
			<point x="245" y="591"/>
			<point x="283" y="617"/>
			<point x="332" y="617" type="curve" smooth="yes"/>
			<point x="385" y="617"/>
			<point x="427" y="594"/>
			<point x="460" y="550" type="curve"/>
			<point x="553" y="634" type="line"/>
			<point x="514" y="697"/>
			<point x="445" y="731"/>
			<point x="354" y="731" type="curve" smooth="yes"/>
			<point x="213" y="731"/>
			<point x="103" y="641"/>
			<point x="103" y="525" type="curve" smooth="yes"/>
			<point x="103" y="476"/>
			<point x="116" y="441"/>
			<point x="144" y="419" type="curve"/>
			<point x="67" y="376"/>
			<point x="25" y="325"/>
			<point x="25" y="258" type="curve" smooth="yes"/>
			<point x="25" y="177"/>
			<point x="82" y="130"/>
			<point x="210" y="106" type="curve" smooth="yes"/>
			<point x="275" y="94"/>
			<point x="299" y="79"/>
			<point x="299" y="50" type="curve" smooth="yes"/>
			<point x="299" y="10"/>
			<point x="263" y="-13"/>
			<point x="203" y="-13" type="curve" smooth="yes"/>
			<point x="140" y="-13"/>
			<point x="90" y="12"/>
			<point x="59" y="53" type="curve"/>
		</contour>
		<contour>
			<point x="273" y="229" type="line" smooth="yes"/>
			<point x="192" y="247"/>
			<point x="169" y="263"/>
			<point x="169" y="297" type="curve" smooth="yes"/>
			<point x="169" y="327"/>
			<point x="202" y="362"/>
			<point x="250" y="375" type="curve"/>
			<point x="264" y="372" type="line" smooth="yes"/>
			<point x="342" y="354"/>
			<point x="369" y="335"/>
			<point x="369" y="301" type="curve" smooth="yes"/>
			<point x="369" y="270"/>
			<point x="337" y="239"/>
			<point x="289" y="225" type="curve" smooth="yes"/>
		</contour>
	</outline>
	<guideline y="-13"/>
	<guideline y="617"/>
</glyph>
<glyph name="copyright" format="2">
	<unicode hex="00A9"/>
	<advance width="832"/>
	<outline>
		<contour>
			<point x="531" y="299" type="line"/>
			<point x="510" y="268"/>
			<point x="480" y="249"/>
			<point x="449" y="249" type="curve" smooth="yes"/>
			<point x="397" y="249"/>
			<point x="362" y="294"/>
			<point x="362" y="359" type="curve" smooth="yes"/>
			<point x="362" y="423"/>
			<point x="397" y="468"/>
			<point x="449" y="468" type="curve" smooth="yes"/>
			<point x="480" y="468"/>
			<point x="510" y="449"/>
			<point x="531" y="419" type="curve"/>
			<point x="605" y="496" type="line"/>
			<point x="571" y="540"/>
			<point x="515" y="572"/>
			<point x="442" y="572" type="curve" smooth="yes"/>
			<point x="321" y="572"/>
			<point x="232" y="484"/>
			<point x="232" y="359" type="curve" smooth="yes"/>
			<point x="232" y="232"/>
			<point x="319" y="145"/>
			<point x="440" y="145" type="curve" smooth="yes"/>
			<point x="513" y="145"/>
			<point x="571" y="176"/>
			<point x="605" y="220" type="curve"/>
		</contour>
		<contour>
			<point x="436" y="-26" type="curve" smooth="yes"/>
			<point x="644" y="-26"/>
			<point x="809" y="143"/>
			<point x="809" y="358" type="curve" smooth="yes"/>
			<point x="809" y="573"/>
			<point x="644" y="742"/>
			<point x="436" y="742" type="curve" smooth="yes"/>
			<point x="228" y="742"/>
			<point x="63" y="573"/>
			<point x="63" y="358" type="curve" smooth="yes"/>
			<point x="63" y="143"/>
			<point x="228" y="-26"/>
		</contour>
		<contour>
			<point x="436" y="67" type="curve" smooth="yes"/>
			<point x="280" y="67"/>
			<point x="157" y="195"/>
			<point x="157" y="358" type="curve" smooth="yes"/>
			<point x="157" y="521"/>
			<point x="280" y="649"/>
			<point x="436" y="649" type="curve" smooth="yes"/>
			<point x="592" y="649"/>
			<point x="715" y="521"/>
			<point x="715" y="358" type="curve" smooth="yes"/>
			<point x="715" y="195"/>
			<point x="592" y="67"/>
		</contour>
	</outline>
</glyph>
<glyph name="registered" format="2">
	<unicode hex="00AE"/>
	<advance width="516"/>
	<outline>
		<contour>
			<point x="216" y="385" type="line"/>
			<point x="275" y="385" type="line"/>
			<point x="275" y="553" type="line"/>
			<point x="308" y="553" type="line" smooth="yes"/>
			<point x="322" y="553"/>
			<point x="332" y="542"/>
			<point x="332" y="526" type="curve" smooth="yes"/>
			<point x="332" y="510"/>
			<point x="322" y="499"/>
			<point x="308" y="499" type="curve" smooth="yes"/>
			<point x="271" y="499" type="line"/>
			<point x="271" y="447" type="line"/>
			<point x="308" y="447" type="line" smooth="yes"/>
			<point x="359" y="447"/>
			<point x="392" y="479"/>
			<point x="392" y="526" type="curve" smooth="yes"/>
			<point x="392" y="573"/>
			<point x="359" y="605"/>
			<point x="308" y="605" type="curve" smooth="yes"/>
			<point x="216" y="605" type="line"/>
		</contour>
		<contour>
			<point x="336" y="385" type="line"/>
			<point x="406" y="385" type="line"/>
			<point x="336" y="469" type="line"/>
			<point x="270" y="469" type="line"/>
		</contour>
		<contour>
			<point x="303" y="319" type="curve" smooth="yes"/>
			<point x="213" y="319"/>
			<point x="146" y="387"/>
			<point x="146" y="488" type="curve" smooth="yes"/>
			<point x="146" y="589"/>
			<point x="213" y="657"/>
			<point x="303" y="657" type="curve" smooth="yes"/>
			<point x="393" y="657"/>
			<point x="460" y="589"/>
			<point x="460" y="488" type="curve" smooth="yes"/>
			<point x="460" y="387"/>
			<point x="393" y="319"/>
		</contour>
		<contour>
			<point x="303" y="243" type="curve" smooth="yes"/>
			<point x="432" y="243"/>
			<point x="538" y="353"/>
			<point x="538" y="488" type="curve" smooth="yes"/>
			<point x="538" y="623"/>
			<point x="432" y="733"/>
			<point x="303" y="733" type="curve" smooth="yes"/>
			<point x="174" y="733"/>
			<point x="68" y="623"/>
			<point x="68" y="488" type="curve" smooth="yes"/>
			<point x="68" y="353"/>
			<point x="174" y="243"/>
		</contour>
	</outline>
</glyph>
<glyph name="paragraph" format="2">
	<unicode hex="00B6"/>
	<advance width="618"/>
	<outline>
		<contour>
			<point x="110" y="-130" type="line"/>
			<point x="260" y="-130" type="line"/>
			<point x="409" y="573" type="line"/>
			<point x="488" y="573" type="line"/>
			<point x="339" y="-130" type="line"/>
			<point x="489" y="-130" type="line"/>
			<point x="668" y="715" type="line"/>
			<point x="359" y="715" type="line" smooth="yes"/>
			<point x="181" y="715"/>
			<point x="52" y="578"/>
			<point x="52" y="419" type="curve" smooth="yes"/>
			<point x="52" y="329"/>
			<point x="103" y="262"/>
			<point x="189" y="244" type="curve"/>
		</contour>
	</outline>
</glyph>
<glyph name="ordmasculine" format="2">
	<unicode hex="00BA"/>
	<advance width="482"/>
	<outline>
		<contour>
			<point x="268" y="288" type="curve" smooth="yes"/>
			<point x="410" y="288"/>
			<point x="511" y="403"/>
			<point x="511" y="535" type="curve" smooth="yes"/>
			<point x="511" y="652"/>
			<point x="428" y="715"/>
			<point x="319" y="715" type="curve" smooth="yes"/>
			<point x="177" y="715"/>
			<point x="76" y="600"/>
			<point x="76" y="468" type="curve" smooth="yes"/>
			<point x="76" y="351"/>
			<point x="159" y="288"/>
		</contour>
		<contour>
			<point x="277" y="407" type="curve" smooth="yes"/>
			<point x="237" y="407"/>
			<point x="228" y="451"/>
			<point x="228" y="478" type="curve" smooth="yes"/>
			<point x="228" y="528"/>
			<point x="256" y="596"/>
			<point x="311" y="596" type="curve" smooth="yes"/>
			<point x="350" y="596"/>
			<point x="359" y="552"/>
			<point x="359" y="525" type="curve" smooth="yes"/>
			<point x="359" y="475"/>
			<point x="331" y="407"/>
		</contour>
	</outline>
</glyph>
<glyph name="questiondown" format="2">
	<unicode hex="00BF"/>
	<advance width="591"/>
	<outline>
		<contour>
			<point x="412" y="1" type="line"/>
			<point x="363" y="-59"/>
			<point x="307" y="-92"/>
			<point x="254" y="-92" type="curve" smooth="yes"/>
			<point x="206" y="-92"/>
			<point x="182" y="-66"/>
			<point x="182" y="-33" type="curve" smooth="yes"/>
			<point x="182" y="3"/>
			<point x="205" y="33"/>
			<point x="252" y="56" type="curve" smooth="yes"/>
			<point x="352" y="106"/>
			<point x="384" y="155"/>
			<point x="392" y="261" type="curve"/>
			<point x="274" y="261" type="line"/>
			<point x="266" y="214"/>
			<point x="247" y="193"/>
			<point x="185" y="162" type="curve" smooth="yes"/>
			<point x="71" y="105"/>
			<point x="17" y="39"/>
			<point x="17" y="-60" type="curve" smooth="yes"/>
			<point x="17" y="-150"/>
			<point x="97" y="-234"/>
			<point x="232" y="-234" type="curve" smooth="yes"/>
			<point x="335" y="-234"/>
			<point x="428" y="-189"/>
			<point x="503" y="-106" type="curve"/>
		</contour>
		<contour>
			<point x="261" y="398" type="curve" smooth="yes"/>
			<point x="261" y="351"/>
			<point x="296" y="314"/>
			<point x="342" y="314" type="curve" smooth="yes"/>
			<point x="409" y="314"/>
			<point x="459" y="363"/>
			<point x="459" y="430" type="curve" smooth="yes"/>
			<point x="459" y="476"/>
			<point x="423" y="510"/>
			<point x="376" y="510" type="curve" smooth="yes"/>
			<point x="309" y="510"/>
			<point x="261" y="464"/>
		</contour>
	</outline>
</glyph>
<glyph name="oslash" format="2">
	<unicode hex="00F8"/>
	<advance width="615"/>
	<outline>
		<contour>
			<point x="32" y="-33" type="line"/>
			<point x="639" y="469" type="line"/>
			<point x="581" y="543" type="line"/>
			<point x="-24" y="41" type="line"/>
		</contour>
		<contour>
			<point x="37" y="222" type="curve" smooth="yes"/>
			<point x="37" y="73"/>
			<point x="130" y="-16"/>
			<point x="287" y="-16" type="curve" smooth="yes"/>
			<point x="446" y="-16"/>
			<point x="578" y="122"/>
			<point x="578" y="288" type="curve" smooth="yes"/>
			<point x="578" y="437"/>
			<point x="485" y="526"/>
			<point x="328" y="526" type="curve" smooth="yes"/>
			<point x="169" y="526"/>
			<point x="37" y="388"/>
		</contour>
		<contour>
			<point x="287" y="120" type="curve" smooth="yes"/>
			<point x="230" y="120"/>
			<point x="202" y="159"/>
			<point x="202" y="222" type="curve" smooth="yes"/>
			<point x="202" y="313"/>
			<point x="259" y="390"/>
			<point x="328" y="390" type="curve" smooth="yes"/>
			<point x="386" y="390"/>
			<point x="413" y="351"/>
			<point x="413" y="288" type="curve" smooth="yes"/>
			<point x="413" y="197"/>
			<point x="356" y="120"/>
		</contour>
	</outline>
</glyph>
<glyph name="dotlessi" format="2">
	<unicode hex="0131"/>
	<advance width="275"/>
	<outline>
		<contour>
			<point x="4" y="0" type="line"/>
			<point x="167" y="0" type="line"/>
			<point x="275" y="510" type="line"/>
			<point x="112" y="510" type="line"/>
		</contour>
	</outline>
	<anchor name="top.LC" x="197" y="544"/>
	<guideline x="82" y="0" angle="102"/>
</glyph>
<glyph name="IJ" format="2">
	<unicode hex="0132"/>
	<advance width="700"/>
	<outline>
		<contour>
			<point x="92" y="372" type="line"/>
			<point x="258" y="372" type="line"/>
			<point x="330" y="715" type="line"/>
			<point x="164" y="715" type="line"/>
		</contour>
		<contour>
			<point x="73" y="261" type="line"/>
			<point x="70" y="239"/>
			<point x="69" y="219"/>
			<point x="69" y="200" type="curve" smooth="yes"/>
			<point x="69" y="64"/>
			<point x="182" y="-16"/>
			<point x="304" y="-16" type="curve" smooth="yes"/>
			<point x="501" y="-16"/>
			<point x="595" y="87"/>
			<point x="635" y="278" type="curve" smooth="yes"/>
			<point x="728" y="715" type="line"/>
			<point x="562" y="715" type="line"/>
			<point x="471" y="285" type="line" smooth="yes"/>
			<point x="451" y="190"/>
			<point x="405" y="133"/>
			<point x="331" y="133" type="curve" smooth="yes"/>
			<point x="254" y="133"/>
			<point x="232" y="184"/>
			<point x="232" y="240" type="curve" smooth="yes"/>
			<point x="232" y="253"/>
			<point x="233" y="267"/>
			<point x="235" y="280" type="curve"/>
		</contour>
	</outline>
	<anchor name="top.UC_1" x="247" y="750"/>
	<anchor name="top.UC_2" x="645" y="750"/>
</glyph>
<glyph name="dieresiscomb" format="2">
	<unicode hex="0308"/>
	<outline>
		<contour>
			<point x="-109" y="573" type="curve" smooth="yes"/>
			<point x="-45" y="573"/>
			<point x="1" y="619"/>
			<point x="1" y="681" type="curve" smooth="yes"/>
			<point x="1" y="721"/>
			<point x="-28" y="750"/>
			<point x="-72" y="750" type="curve" smooth="yes"/>
			<point x="-137" y="750"/>
			<point x="-183" y="704"/>
			<point x="-183" y="643" type="curve" smooth="yes"/>
			<point x="-183" y="602"/>
			<point x="-154" y="573"/>
		</contour>
		<contour>
			<point x="124" y="573" type="curve" smooth="yes"/>
			<point x="188" y="573"/>
			<point x="234" y="619"/>
			<point x="234" y="681" type="curve" smooth="yes"/>
			<point x="234" y="721"/>
			<point x="205" y="750"/>
			<point x="161" y="750" type="curve" smooth="yes"/>
			<point x="96" y="750"/>
			<point x="50" y="704"/>
			<point x="50" y="643" type="curve" smooth="yes"/>
			<point x="50" y="602"/>
			<point x="79" y="573"/>
		</contour>
	</outline>
	<anchor name="_top.LC" x="0" y="544"/>
	<guideline x="-116" y="0" angle="102"/>
</glyph>
<glyph name="hungarumlautcomb" format="2">
	<unicode hex="030B"/>
	<outline>
		<contour>
			<point x="-185" y="587" type="line"/>
			<point x="-38" y="587" type="line"/>
			<point x="131" y="761" type="line"/>
			<point x="-46" y="761" type="line"/>
		</contour>
		<contour>
			<point x="7" y="587" type="line"/>
			<point x="154" y="587" type="line"/>
			<point x="353" y="761" type="line"/>
			<point x="176" y="761" type="line"/>
		</contour>
	</outline>
	<anchor name="_top.LC" x="0" y="544"/>
</glyph>
<glyph name="caroncomb" format="2">
	<unicode hex="030C"/>
	<outline>
		<contour>
			<point x="-90" y="587" type="line"/>
			<point x="92" y="587" type="line"/>
			<point x="251" y="761" type="line"/>
			<point x="109" y="761" type="line"/>
			<point x="-54" y="603" type="line"/>
			<point x="65" y="603" type="line"/>
			<point x="-30" y="761" type="line"/>
			<point x="-175" y="761" type="line"/>
		</contour>
	</outline>
	<anchor name="_top.LC" x="0" y="544"/>
	<guideline x="-115" y="0" angle="102"/>
</glyph>
<glyph name="cedillacomb" format="2">
	<unicode hex="0327"/>
	<outline>
		<contour>
			<point x="-157" y="-224" type="line"/>
			<point x="-125" y="-253"/>
			<point x="-90" y="-265"/>
			<point x="-41" y="-265" type="curve" smooth="yes"/>
			<point x="68" y="-265"/>
			<point x="131" y="-205"/>
			<point x="131" y="-127" type="curve" smooth="yes"/>
			<point x="131" y="-73"/>
			<point x="84" y="-35"/>
			<point x="4" y="-35" type="curve"/>
			<point x="18" y="-94" type="line"/>
			<point x="69" y="10" type="line"/>
			<point x="-15" y="10" type="line"/>
			<point x="-77" y="-114" type="line"/>
			<point x="-62" y="-111"/>
			<point x="-43" y="-109"/>
			<point x="-25" y="-109" type="curve" smooth="yes"/>
			<point x="8" y="-109"/>
			<point x="27" y="-120"/>
			<point x="27" y="-140" type="curve" smooth="yes"/>
			<point x="27" y="-162"/>
			<point x="6" y="-176"/>
			<point x="-26" y="-176" type="curve" smooth="yes"/>
			<point x="-54" y="-176"/>
			<point x="-76" y="-168"/>
			<point x="-98" y="-151" type="curve"/>
		</contour>
	</outline>
	<anchor name="_bottom.LC" x="0" y="-50"/>
	<guideline x="15" y="0" angle="102"/>
</glyph>
<glyph name="ogonekcomb" format="2">
	<unicode hex="0328"/>
	<outline>
		<contour>
			<point x="88" y="-148" type="line"/>
			<point x="78" y="-150"/>
			<point x="67" y="-151"/>
			<point x="59" y="-151" type="curve" smooth="yes"/>
			<point x="27" y="-151"/>
			<point x="9" y="-138"/>
			<point x="9" y="-115" type="curve" smooth="yes"/>
			<point x="9" y="-77"/>
			<point x="48" y="-36"/>
			<point x="119" y="0" type="curve"/>
			<point x="32" y="22" type="line"/>
			<point x="-75" y="-37"/>
			<point x="-121" y="-92"/>
			<point x="-121" y="-161" type="curve" smooth="yes"/>
			<point x="-121" y="-220"/>
			<point x="-70" y="-255"/>
			<point x="18" y="-255" type="curve" smooth="yes"/>
			<point x="36" y="-255"/>
			<point x="50" y="-254"/>
			<point x="66" y="-251" type="curve"/>
		</contour>
	</outline>
	<anchor name="_ogonek.LC" x="0" y="-30"/>
	<guideline x="6" y="0" angle="102"/>
</glyph>
<glyph name="endash" format="2">
	<unicode hex="2013"/>
	<advance width="500"/>
	<outline>
		<contour>
			<point x="-14" y="213" type="line"/>
			<point x="486" y="213" type="line"/>
			<point x="514" y="351" type="line"/>
			<point x="14" y="351" type="line"/>
		</contour>
	</outline>
</glyph>
<glyph name="emdash" format="2">
	<unicode hex="2014"/>
	<advance width="1000"/>
	<outline>
		<contour>
			<point x="-14" y="213" type="line"/>
			<point x="986" y="213" type="line"/>
			<point x="1014" y="351" type="line"/>
			<point x="14" y="351" type="line"/>
		</contour>
	</outline>
</glyph>
<glyph name="quoteleft" format="2">
	<unicode hex="2018"/>
	<advance width="272"/>
	<outline>
		<contour>
			<point x="212" y="560" type="line"/>
			<point x="216" y="609"/>
			<point x="259" y="674"/>
			<point x="333" y="751" type="curve"/>
			<point x="244" y="751" type="line"/>
			<point x="154" y="668"/>
			<point x="99" y="578"/>
			<point x="99" y="513" type="curve" smooth="yes"/>
			<point x="99" y="463"/>
			<point x="128" y="433"/>
			<point x="175" y="433" type="curve" smooth="yes"/>
			<point x="241" y="433"/>
			<point x="288" y="487"/>
			<point x="288" y="547" type="curve" smooth="yes"/>
			<point x="288" y="591"/>
			<point x="257" y="620"/>
			<point x="210" y="620" type="curve"/>
		</contour>
	</outline>
</glyph>
<glyph name="fraction" format="2">
	<unicode hex="2044"/>
	<advance width="191"/>
	<outline>
		<contour>
			<point x="-269" y="0" type="line"/>
			<point x="-107" y="0" type="line"/>
			<point x="504" y="715" type="line"/>
			<point x="342" y="715" type="line"/>
		</contour>
	</outline>
</glyph>
<glyph name="rupeeindian" format="2">
	<unicode hex="20B9"/>
	<advance width="631"/>
	<outline>
		<contour>
			<point x="94" y="439" type="line"/>
			<point x="587" y="439" type="line"/>
			<point x="630" y="547" type="line"/>
			<point x="117" y="547" type="line"/>
		</contour>
		<contour>
			<point x="130" y="607" type="line"/>
			<point x="322" y="607" type="line" smooth="yes"/>
			<point x="385" y="607"/>
			<point x="421" y="578"/>
			<point x="421" y="525" type="curve" smooth="yes"/>
			<point x="421" y="443"/>
			<point x="358" y="383"/>
			<point x="274" y="383" type="curve" smooth="yes"/>
			<point x="83" y="383" type="line"/>
			<point x="60" y="275" type="line"/>
			<point x="293" y="0" type="line"/>
			<point x="506" y="0" type="line"/>
			<point x="257" y="294" type="line"/>
			<point x="247" y="275" type="line"/>
			<point x="258" y="275" type="line" smooth="yes"/>
			<point x="429" y="275"/>
			<point x="562" y="392"/>
			<point x="562" y="543" type="curve" smooth="yes"/>
			<point x="562" y="575"/>
			<point x="551" y="605"/>
			<point x="530" y="627" type="curve"/>
			<point x="520" y="607" type="line"/>
			<point x="653" y="607" type="line"/>
			<point x="694" y="715" type="line"/>
			<point x="152" y="715" type="line"/>
		</contour>
	</outline>
</glyph>
<glyph name="acutecomb.asc" format="2">
	<outline>
		<contour>
			<point x="-85" y="587" type="line"/>
			<point x="54" y="587" type="line"/>
			<point x="236" y="731" type="line"/>
			<point x="56" y="731" type="line"/>
		</contour>
	</outline>
	<anchor name="_top.LC" x="0" y="544"/>
</glyph>
<glyph name="acutecomb.narrow" format="2">
	<outline>
		<contour>
			<point x="-89" y="587" type="line"/>
			<point x="35" y="587" type="line"/>
			<point x="194" y="761" type="line"/>
			<point x="30" y="761" type="line"/>
		</contour>
	</outline>
	<anchor name="_top.LC" x="0" y="544"/>
</glyph>
<glyph name="caroncomb.cap" format="2">
	<outline>
		<contour>
			<point x="-71" y="799" type="line"/>
			<point x="111" y="799" type="line"/>
			<point x="271" y="943" type="line"/>
			<point x="123" y="943" type="line"/>
			<point x="-41" y="815" type="line"/>
			<point x="90" y="815" type="line"/>
			<point x="-21" y="943" type="line"/>
			<point x="-171" y="943" type="line"/>
		</contour>
	</outline>
	<anchor name="_top.UC" x="0" y="750"/>
	<guideline x="-159" y="0" angle="102"/>
</glyph>
<glyph name="circumflexcomb.cap" format="2">
	<outline>
		<contour>
			<point x="-209" y="799" type="line"/>
			<point x="-57" y="799" type="line"/>
			<point x="107" y="927" type="line"/>
			<point x="-28" y="927" type="line"/>
			<point x="83" y="799" type="line"/>
			<point x="233" y="799" type="line"/>
			<point x="133" y="943" type="line"/>
			<point x="-49" y="943" type="line"/>
		</contour>
	</outline>
	<anchor name="_top.UC" x="0" y="750"/>
	<guideline x="-159" y="0" angle="102"/>
</glyph>
<glyph name="circumflexcomb.narrow" format="2">
	<outline>
		<contour>
			<point x="-171" y="587" type="line"/>
			<point x="-47" y="587" type="line"/>
			<point x="103" y="735" type="line"/>
			<point x="-20" y="735" type="line"/>
			<point x="68" y="587" type="line"/>
			<point x="195" y="587" type="line"/>
			<point x="111" y="761" type="line"/>
			<point x="-13" y="761" type="line"/>
		</contour>
	</outline>
	<anchor name="_top.LC" x="0" y="544"/>
	<guideline x="-115" y="0" angle="102"/>
</glyph>
<glyph name="commabelowcomb.cap" format="2">
	<outline>
		<contour>
			<point x="-65" y="-306" type="line"/>
			<point x="-15" y="-262"/>
			<point x="48" y="-197"/>
			<point x="48" y="-138" type="curve" smooth="yes"/>
			<point x="48" y="-94"/>
			<point x="21" y="-70"/>
			<point x="-16" y="-70" type="curve" smooth="yes"/>
			<point x="-72" y="-70"/>
			<point x="-101" y="-112"/>
			<point x="-101" y="-153" type="curve" smooth="yes"/>
			<point x="-101" y="-188"/>
			<point x="-78" y="-211"/>
			<point x="-42" y="-211" type="curve"/>
			<point x="-58" y="-188" type="line"/>
			<point x="-63" y="-219"/>
			<point x="-98" y="-268"/>
			<point x="-141" y="-306" type="curve"/>
		</contour>
	</outline>
	<anchor name="_bottom.UC" x="0" y="-50"/>
	<guideline x="10" y="0" angle="102"/>
</glyph>
<glyph name="ogonekcomb.cap" format="2">
	<outline>
		<contour>
			<point x="104" y="-146" type="line"/>
			<point x="93" y="-148"/>
			<point x="82" y="-149"/>
			<point x="75" y="-149" type="curve" smooth="yes"/>
			<point x="47" y="-149"/>
			<point x="27" y="-134"/>
			<point x="27" y="-105" type="curve" smooth="yes"/>
			<point x="27" y="-47"/>
			<point x="91" y="-11"/>
			<point x="135" y="0" type="curve"/>
			<point x="34" y="22" type="line"/>
			<point x="-37" y="-11"/>
			<point x="-107" y="-75"/>
			<point x="-107" y="-155" type="curve" smooth="yes"/>
			<point x="-107" y="-222"/>
			<point x="-50" y="-255"/>
			<point x="34" y="-255" type="curve" smooth="yes"/>
			<point x="50" y="-255"/>
			<point x="65" y="-254"/>
			<point x="82" y="-251" type="curve"/>
		</contour>
	</outline>
	<anchor name="_ogonek.UC" x="0" y="-30"/>
	<guideline x="6" y="0" angle="102"/>
</glyph>
<glyph name="ogonekcomb.round.cap" format="2">
	<outline>
		<contour>
			<point x="152" y="-147" type="line"/>
			<point x="143" y="-148"/>
			<point x="132" y="-149"/>
			<point x="123" y="-149" type="curve" smooth="yes"/>
			<point x="93" y="-149"/>
			<point x="75" y="-134"/>
			<point x="75" y="-107" type="curve" smooth="yes"/>
			<point x="75" y="-57"/>
			<point x="114" y="-12"/>
			<point x="188" y="24" type="curve"/>
			<point x="82" y="24" type="line"/>
			<point x="-13" y="-32"/>
			<point x="-58" y="-90"/>
			<point x="-58" y="-156" type="curve" smooth="yes"/>
			<point x="-58" y="-219"/>
			<point x="-7" y="-255"/>
			<point x="82" y="-255" type="curve" smooth="yes"/>
			<point x="100" y="-255"/>
			<point x="116" y="-254"/>
			<point x="130" y="-251" type="curve"/>
		</contour>
	</outline>
	<anchor name="_ogonek.UC.round" x="0" y="-30"/>
</glyph>
<glyph name="questiondown.case" format="2">
	<advance width="591"/>
	<outline>
		<contour>
			<point x="436" y="206" type="line"/>
			<point x="387" y="146"/>
			<point x="331" y="113"/>
			<point x="278" y="113" type="curve" smooth="yes"/>
			<point x="230" y="113"/>
			<point x="206" y="139"/>
			<point x="206" y="172" type="curve" smooth="yes"/>
			<point x="206" y="208"/>
			<point x="229" y="238"/>
			<point x="276" y="261" type="curve" smooth="yes"/>
			<point x="376" y="311"/>
			<point x="408" y="360"/>
			<point x="416" y="466" type="curve"/>
			<point x="298" y="466" type="line"/>
			<point x="290" y="419"/>
			<point x="271" y="398"/>
			<point x="209" y="367" type="curve" smooth="yes"/>
			<point x="95" y="310"/>
			<point x="41" y="244"/>
			<point x="41" y="145" type="curve" smooth="yes"/>
			<point x="41" y="55"/>
			<point x="121" y="-29"/>
			<point x="256" y="-29" type="curve" smooth="yes"/>
			<point x="359" y="-29"/>
			<point x="452" y="16"/>
			<point x="527" y="99" type="curve"/>
		</contour>
		<contour>
			<point x="366" y="519" type="curve" smooth="yes"/>
			<point x="433" y="519"/>
			<point x="483" y="568"/>
			<point x="483" y="635" type="curve" smooth="yes"/>
			<point x="483" y="681"/>
			<point x="447" y="715"/>
			<point x="400" y="715" type="curve" smooth="yes"/>
			<point x="333" y="715"/>
			<point x="285" y="669"/>
			<point x="285" y="603" type="curve" smooth="yes"/>
			<point x="285" y="556"/>
			<point x="320" y="519"/>
		</contour>
	</outline>
	<guideline y="519"/>
</glyph>
<glyph name="ringcomb.cap" format="2">
	<outline>
		<contour>
			<point x="61" y="1002" type="curve" smooth="yes"/>
			<point x="-29" y="1002"/>
			<point x="-101" y="930"/>
			<point x="-101" y="841" type="curve" smooth="yes"/>
			<point x="-101" y="780"/>
			<point x="-58" y="738"/>
			<point x="5" y="738" type="curve" smooth="yes"/>
			<point x="94" y="738"/>
			<point x="167" y="810"/>
			<point x="167" y="899" type="curve" smooth="yes"/>
			<point x="167" y="960"/>
			<point x="123" y="1002"/>
		</contour>
		<contour>
			<point x="44" y="922" type="curve" smooth="yes"/>
			<point x="66" y="922"/>
			<point x="82" y="906"/>
			<point x="82" y="882" type="curve" smooth="yes"/>
			<point x="82" y="845"/>
			<point x="57" y="818"/>
			<point x="22" y="818" type="curve" smooth="yes"/>
			<point x="-1" y="818"/>
			<point x="-16" y="834"/>
			<point x="-16" y="858" type="curve" smooth="yes"/>
			<point x="-16" y="895"/>
			<point x="8" y="922"/>
		</contour>
	</outline>
	<anchor name="_top.UC" x="0" y="750"/>
	<guideline x="-160" y="0" angle="102"/>
</glyph>
<glyph name="tildecomb.cap" format="2">
	<outline>
		<contour>
			<point x="-57" y="940" type="curve" smooth="yes"/>
			<point x="-127" y="940"/>
			<point x="-183" y="895"/>
			<point x="-210" y="816" type="curve"/>
			<point x="-118" y="773" type="line"/>
			<point x="-101" y="815"/>
			<point x="-86" y="835"/>
			<point x="-71" y="835" type="curve" smooth="yes"/>
			<point x="-60" y="835"/>
			<point x="-55" y="832"/>
			<point x="-41" y="818" type="curve" smooth="yes"/>
			<point x="-8" y="786"/>
			<point x="27" y="770"/>
			<point x="65" y="770" type="curve" smooth="yes"/>
			<point x="135" y="770"/>
			<point x="191" y="815"/>
			<point x="218" y="894" type="curve"/>
			<point x="126" y="937" type="line"/>
			<point x="109" y="895"/>
			<point x="94" y="875"/>
			<point x="79" y="875" type="curve" smooth="yes"/>
			<point x="69" y="875"/>
			<point x="62" y="879"/>
			<point x="48" y="893" type="curve" smooth="yes"/>
			<point x="16" y="924"/>
			<point x="-20" y="940"/>
		</contour>
	</outline>
	<anchor name="_top.UC" x="0" y="750"/>
	<guideline x="-159" y="0" angle="102"/>
</glyph>
<glyph name="zero.dnom" format="2">
	<advance width="382"/>
	<outline>
		<contour>
			<point x="146" y="-9" type="curve" smooth="yes"/>
			<point x="267" y="-9"/>
			<point x="359" y="106"/>
			<point x="359" y="259" type="curve" smooth="yes"/>
			<point x="359" y="359"/>
			<point x="306" y="417"/>
			<point x="214" y="417" type="curve" smooth="yes"/>
			<point x="93" y="417"/>
			<point x="1" y="302"/>
			<point x="1" y="149" type="curve" smooth="yes"/>
			<point x="1" y="49"/>
			<point x="54" y="-9"/>
		</contour>
		<contour>
			<point x="157" y="83" type="curve" smooth="yes"/>
			<point x="134" y="83"/>
			<point x="120" y="105"/>
			<point x="120" y="142" type="curve" smooth="yes"/>
			<point x="120" y="236"/>
			<point x="161" y="325"/>
			<point x="204" y="325" type="curve" smooth="yes"/>
			<point x="227" y="325"/>
			<point x="240" y="303"/>
			<point x="240" y="266" type="curve" smooth="yes"/>
			<point x="240" y="172"/>
			<point x="200" y="83"/>
		</contour>
	</outline>
	<guideline y="83"/>
	<guideline y="325"/>
</glyph>
